HIERARCHY
ROOT mixamorig:Hips
{
	OFFSET 0.000000 92.661156 0.000000
	CHANNELS 6 Xposition Yposition Zposition Xrotation Yrotation Zrotation
	JOINT mixamorig:Spine
	{
		OFFSET 0.000000 8.600700 -0.340700
		CHANNELS 3 Xrotation Yrotation Zrotation
		JOINT mixamorig:Spine1
		{
			OFFSET 0.000000 10.034225 -0.397508
			CHANNELS 3 Xrotation Yrotation Zrotation
			JOINT mixamorig:Spine2
			{
				OFFSET 0.000000 11.467606 -0.454292
				CHANNELS 3 Xrotation Yrotation Zrotation
				JOINT mixamorig:Neck
				{
					OFFSET 0.000000 12.901077 -0.511079
					CHANNELS 3 Xrotation Yrotation Zrotation
					JOINT mixamorig:Head
					{
						OFFSET 0.000000 17.330292 0.169800
						CHANNELS 3 Xrotation Yrotation Zrotation
						JOINT mixamorig:HeadTop_End
						{
							OFFSET 0.000000 25.253006 0.449800
							CHANNELS 3 Xrotation Yrotation Zrotation
							End Site
							{
								OFFSET 0.000000 25.257004 0.000000
							}
						}
					}
				}
				JOINT mixamorig:LeftShoulder
				{
					OFFSET 7.576400 10.581253 -0.470819
					CHANNELS 3 Xrotation Yrotation Zrotation
					JOINT mixamorig:LeftArm
					{
						OFFSET 14.492776 -4.330338 0.080513
						CHANNELS 3 Xrotation Yrotation Zrotation
						JOINT mixamorig:LeftForeArm
						{
							OFFSET 24.772102 0.000000 0.000001
							CHANNELS 3 Xrotation Yrotation Zrotation
							JOINT mixamorig:LeftHand
							{
								OFFSET 30.634605 0.000000 0.000001
								CHANNELS 3 Xrotation Yrotation Zrotation
								JOINT mixamorig:LeftHandThumb1
								{
									OFFSET 3.322998 -1.480820 3.892684
									CHANNELS 3 Xrotation Yrotation Zrotation
									JOINT mixamorig:LeftHandThumb2
									{
										OFFSET 3.301682 -1.906227 1.906227
										CHANNELS 3 Xrotation Yrotation Zrotation
										JOINT mixamorig:LeftHandThumb3
										{
											OFFSET 4.058510 -2.343185 2.343183
											CHANNELS 3 Xrotation Yrotation Zrotation
											JOINT mixamorig:LeftHandThumb4
											{
												OFFSET 3.530258 -2.038193 2.038196
												CHANNELS 3 Xrotation Yrotation Zrotation
												End Site
												{
													OFFSET 3.519913 -2.038574 2.055655
												}
											}
										}
									}
								}
								JOINT mixamorig:LeftHandIndex1
								{
									OFFSET 10.849342 -0.216278 3.292529
									CHANNELS 3 Xrotation Yrotation Zrotation
									JOINT mixamorig:LeftHandIndex2
									{
										OFFSET 4.927605 0.000000 0.000000
										CHANNELS 3 Xrotation Yrotation Zrotation
										JOINT mixamorig:LeftHandIndex3
										{
											OFFSET 4.929016 0.000000 0.000000
											CHANNELS 3 Xrotation Yrotation Zrotation
											JOINT mixamorig:LeftHandIndex4
											{
												OFFSET 3.938446 0.000000 0.000000
												CHANNELS 3 Xrotation Yrotation Zrotation
												End Site
												{
													OFFSET 3.938400 -0.000778 -0.018584
												}
											}
										}
									}
								}
								JOINT mixamorig:LeftHandMiddle1
								{
									OFFSET 10.448532 0.000000 0.000000
									CHANNELS 3 Xrotation Yrotation Zrotation
									JOINT mixamorig:LeftHandMiddle2
									{
										OFFSET 5.230713 0.000000 0.000000
										CHANNELS 3 Xrotation Yrotation Zrotation
										JOINT mixamorig:LeftHandMiddle3
										{
											OFFSET 5.101120 0.000000 0.000000
											CHANNELS 3 Xrotation Yrotation Zrotation
											JOINT mixamorig:LeftHandMiddle4
											{
												OFFSET 4.284767 0.000000 0.000000
												CHANNELS 3 Xrotation Yrotation Zrotation
												End Site
												{
													OFFSET 4.284698 0.001328 0.023863
												}
											}
										}
									}
								}
								JOINT mixamorig:LeftHandRing1
								{
									OFFSET 10.036697 -0.428497 -3.199690
									CHANNELS 3 Xrotation Yrotation Zrotation
									JOINT mixamorig:LeftHandRing2
									{
										OFFSET 5.001900 0.000000 0.000000
										CHANNELS 3 Xrotation Yrotation Zrotation
										JOINT mixamorig:LeftHandRing3
										{
											OFFSET 4.631409 0.000000 0.000000
											CHANNELS 3 Xrotation Yrotation Zrotation
											JOINT mixamorig:LeftHandRing4
											{
												OFFSET 3.923203 0.000000 0.000000
												CHANNELS 3 Xrotation Yrotation Zrotation
												End Site
												{
													OFFSET 3.923203 -0.000458 -0.006183
												}
											}
										}
									}
								}
								JOINT mixamorig:LeftHandPinky1
								{
									OFFSET 8.103996 -0.005463 -4.958908
									CHANNELS 3 Xrotation Yrotation Zrotation
									JOINT mixamorig:LeftHandPinky2
									{
										OFFSET 5.207626 0.000000 0.000000
										CHANNELS 3 Xrotation Yrotation Zrotation
										JOINT mixamorig:LeftHandPinky3
										{
											OFFSET 4.089874 0.000000 0.000000
											CHANNELS 3 Xrotation Yrotation Zrotation
											JOINT mixamorig:LeftHandPinky4
											{
												OFFSET 3.375877 0.000000 0.000000
												CHANNELS 3 Xrotation Yrotation Zrotation
												End Site
												{
													OFFSET 3.375610 -0.004654 -0.043049
												}
											}
										}
									}
								}
							}
						}
					}
				}
				JOINT mixamorig:RightShoulder
				{
					OFFSET -7.576400 10.581161 -0.551379
					CHANNELS 3 Xrotation Yrotation Zrotation
					JOINT mixamorig:RightArm
					{
						OFFSET -14.492803 -4.330246 -0.080524
						CHANNELS 3 Xrotation Yrotation Zrotation
						JOINT mixamorig:RightForeArm
						{
							OFFSET -24.772099 0.000000 0.000001
							CHANNELS 3 Xrotation Yrotation Zrotation
							JOINT mixamorig:RightHand
							{
								OFFSET -30.639809 0.000000 0.000002
								CHANNELS 3 Xrotation Yrotation Zrotation
								JOINT mixamorig:RightHandThumb1
								{
									OFFSET -3.507294 -1.655342 3.790413
									CHANNELS 3 Xrotation Yrotation Zrotation
									JOINT mixamorig:RightHandThumb2
									{
										OFFSET -3.360497 -1.940186 1.940186
										CHANNELS 3 Xrotation Yrotation Zrotation
										JOINT mixamorig:RightHandThumb3
										{
											OFFSET -4.025208 -2.323959 2.323956
											CHANNELS 3 Xrotation Yrotation Zrotation
											JOINT mixamorig:RightHandThumb4
											{
												OFFSET -3.461601 -1.998558 1.998559
												CHANNELS 3 Xrotation Yrotation Zrotation
												End Site
												{
													OFFSET -3.333542 -1.998955 2.205183
												}
											}
										}
									}
								}
								JOINT mixamorig:RightHandIndex1
								{
									OFFSET -11.045464 -0.146271 3.003679
									CHANNELS 3 Xrotation Yrotation Zrotation
									JOINT mixamorig:RightHandIndex2
									{
										OFFSET -5.131828 0.000000 0.000000
										CHANNELS 3 Xrotation Yrotation Zrotation
										JOINT mixamorig:RightHandIndex3
										{
											OFFSET -4.796227 0.000000 0.000000
											CHANNELS 3 Xrotation Yrotation Zrotation
											JOINT mixamorig:RightHandIndex4
											{
												OFFSET -4.077904 0.000000 0.000000
												CHANNELS 3 Xrotation Yrotation Zrotation
												End Site
												{
													OFFSET -4.077896 -0.000061 -0.001699
												}
											}
										}
									}
								}
								JOINT mixamorig:RightHandMiddle1
								{
									OFFSET -10.374084 0.000000 0.000000
									CHANNELS 3 Xrotation Yrotation Zrotation
									JOINT mixamorig:RightHandMiddle2
									{
										OFFSET -5.356903 0.000000 0.000000
										CHANNELS 3 Xrotation Yrotation Zrotation
										JOINT mixamorig:RightHandMiddle3
										{
											OFFSET -5.191803 0.000000 0.000000
											CHANNELS 3 Xrotation Yrotation Zrotation
											JOINT mixamorig:RightHandMiddle4
											{
												OFFSET -4.162704 0.000000 0.000000
												CHANNELS 3 Xrotation Yrotation Zrotation
												End Site
												{
													OFFSET -4.162697 0.000336 0.006692
												}
											}
										}
									}
								}
								JOINT mixamorig:RightHandRing1
								{
									OFFSET -9.630859 -0.277283 -3.149876
									CHANNELS 3 Xrotation Yrotation Zrotation
									JOINT mixamorig:RightHandRing2
									{
										OFFSET -5.180817 0.000000 0.000000
										CHANNELS 3 Xrotation Yrotation Zrotation
										JOINT mixamorig:RightHandRing3
										{
											OFFSET -4.740578 0.000000 0.000000
											CHANNELS 3 Xrotation Yrotation Zrotation
											JOINT mixamorig:RightHandRing4
											{
												OFFSET -4.011124 0.000000 0.000000
												CHANNELS 3 Xrotation Yrotation Zrotation
												End Site
												{
													OFFSET -4.011101 -0.000854 -0.014675
												}
											}
										}
									}
								}
								JOINT mixamorig:RightHandPinky1
								{
									OFFSET -8.537476 -0.025681 -5.717695
									CHANNELS 3 Xrotation Yrotation Zrotation
									JOINT mixamorig:RightHandPinky2
									{
										OFFSET -4.854950 0.000000 0.000000
										CHANNELS 3 Xrotation Yrotation Zrotation
										JOINT mixamorig:RightHandPinky3
										{
											OFFSET -3.856483 0.000000 0.000000
											CHANNELS 3 Xrotation Yrotation Zrotation
											JOINT mixamorig:RightHandPinky4
											{
												OFFSET -3.016380 0.000000 0.000000
												CHANNELS 3 Xrotation Yrotation Zrotation
												End Site
												{
													OFFSET -3.016205 -0.003265 -0.033139
												}
											}
										}
									}
								}
							}
						}
					}
				}
			}
		}
	}
	JOINT mixamorig:LeftUpLeg
	{
		OFFSET 10.333600 -4.771301 0.200300
		CHANNELS 3 Xrotation Yrotation Zrotation
		JOINT mixamorig:LeftLeg
		{
			OFFSET -0.039310 -39.946499 -3.314672
			CHANNELS 3 Xrotation Yrotation Zrotation
			JOINT mixamorig:LeftFoot
			{
				OFFSET 0.039316 -38.752296 -6.562774
				CHANNELS 3 Xrotation Yrotation Zrotation
				JOINT mixamorig:LeftToeBase
				{
					OFFSET 0.252044 -8.829344 16.191711
					CHANNELS 3 Xrotation Yrotation Zrotation
					JOINT mixamorig:LeftToe_End
					{
						OFFSET 0.124490 0.008314 8.117143
						CHANNELS 3 Xrotation Yrotation Zrotation
						End Site
						{
							OFFSET 0.124490 0.008314 8.117143
						}
					}
				}
			}
		}
	}
	JOINT mixamorig:RightUpLeg
	{
		OFFSET -10.333600 -4.771301 0.752800
		CHANNELS 3 Xrotation Yrotation Zrotation
		JOINT mixamorig:RightLeg
		{
			OFFSET 0.039295 -39.946587 -3.844795
			CHANNELS 3 Xrotation Yrotation Zrotation
			JOINT mixamorig:RightFoot
			{
				OFFSET -0.039304 -38.753475 -6.471369
				CHANNELS 3 Xrotation Yrotation Zrotation
				JOINT mixamorig:RightToeBase
				{
					OFFSET -0.251556 -8.826419 16.120266
					CHANNELS 3 Xrotation Yrotation Zrotation
					JOINT mixamorig:RightToe_End
					{
						OFFSET -0.124249 0.009768 8.077740
						CHANNELS 3 Xrotation Yrotation Zrotation
						End Site
						{
							OFFSET -0.124249 0.009768 8.077740
						}
					}
				}
			}
		}
	}
}
MOTION
Frames: 5
Frame Time: 0.033333
1.002045 92.301704 -8.171792 -0.718447 -5.975920 -2.905025 1.179993 0.740672 0.842513 2.349031 1.503719 1.641736 2.349030 1.503719 1.641735 -10.175399 0.995516 1.395198 4.559458 1.296876 -2.896506 0.000000 -0.000000 0.000000 -2.345057 0.229858 -11.201430 17.652580 -22.552871 -63.812818 0.735413 -26.843017 0.332003 -31.220720 -4.059837 10.554638 15.093719 9.090673 8.177583 7.278524 9.572818 -0.684845 -0.000006 -0.000001 -0.000011 0.000001 0.000000 -0.000002 -6.489632 12.415247 -8.172502 0.451427 0.705940 -16.464859 -0.000002 0.000001 0.000003 0.000001 0.000001 -0.000000 -0.805136 6.906510 -10.593379 -0.015435 -0.292060 -10.347124 -0.000000 0.000005 0.000003 -0.000000 -0.000001 0.000000 1.932578 6.552099 -19.233147 -0.098554 0.115994 -10.400641 0.000001 0.000008 -0.000003 -0.000001 -0.000000 -0.000000 6.654878 6.908997 -28.694779 -0.494834 -2.794970 -16.375329 -0.000004 -0.000003 0.000002 -0.000001 -0.000000 -0.000001 -1.546633 -0.099599 7.361500 5.800159 -4.268402 74.295130 -29.781957 20.633315 14.752917 37.876315 0.364703 -3.959014 -12.281555 -10.889302 -9.550371 2.008787 -3.890692 -2.570132 0.000005 -0.000014 0.000004 0.000002 -0.000003 -0.000002 -8.787072 -6.758625 5.326503 0.264231 -1.422521 23.907527 -0.000002 0.000005 0.000001 0.000000 -0.000000 -0.000000 -1.877524 -3.014900 18.520743 -0.267670 1.497362 17.151119 -0.000005 -0.000000 0.000001 0.000000 0.000000 -0.000001 -0.582820 -4.019931 20.369697 -0.358508 0.446842 9.351806 -0.000009 0.000001 0.000004 -0.000000 0.000001 -0.000001 1.513183 -3.501512 22.411924 -1.288495 4.063857 12.536186 -0.000003 -0.000001 0.000003 -0.000001 0.000001 0.000000 -20.120773 0.947811 8.676652 16.598622 0.265476 -0.496626 6.641578 17.887967 -3.519690 0.276843 3.218922 -1.879036 0.000000 0.000001 -0.000000 -4.230730 -7.203447 5.755015 5.392030 0.092767 0.274618 -0.401702 -12.585365 -3.787176 -2.755829 0.969550 -0.586105 -0.000000 -0.000003 0.000000 
1.029041 92.207176 -8.176057 -0.670285 -5.977000 -2.864716 1.186230 0.739662 0.839992 2.361473 1.502458 1.626640 2.361474 1.502461 1.626640 -10.041698 1.152706 1.416814 5.507258 -0.636055 -2.382918 0.000000 0.000000 -0.000000 -2.322993 0.205994 -11.168804 17.683250 -22.263454 -63.772957 0.722691 -26.672246 0.324329 -30.714828 -4.295843 10.216062 14.864906 8.927780 8.275533 7.264356 9.638102 -0.740837 -0.000009 -0.000004 -0.000011 -0.000000 -0.000001 -0.000004 -6.510649 12.321348 -8.340458 0.453452 0.711783 -16.401929 -0.000001 0.000001 0.000003 -0.000000 -0.000000 -0.000001 -0.808466 6.885086 -10.710631 -0.015038 -0.288834 -10.286446 0.000001 0.000004 0.000001 -0.000000 0.000000 0.000000 1.921007 6.520250 -19.292339 -0.101327 0.105588 -10.514737 0.000001 0.000010 -0.000002 0.000000 0.000000 -0.000003 6.648691 6.873302 -28.750619 -0.488457 -2.774198 -16.256610 -0.000003 -0.000005 0.000002 -0.000000 -0.000001 -0.000001 -1.519784 -0.096319 7.387502 6.148789 -4.421483 74.227518 -29.237113 21.157549 14.706743 38.028851 0.593787 -3.297816 -12.733172 -10.989250 -9.561514 2.118796 -3.894749 -2.482874 0.000004 -0.000013 0.000002 0.000001 0.000002 -0.000000 -8.689308 -6.703727 5.378703 0.256406 -1.402486 24.118757 -0.000001 0.000006 0.000002 -0.000000 -0.000000 -0.000001 -1.865581 -3.029468 18.460398 -0.274679 1.519013 17.396471 -0.000005 0.000001 0.000001 0.000001 -0.000000 -0.000000 -0.582750 -4.034387 20.234090 -0.360885 0.462157 9.873661 -0.000007 -0.000001 0.000001 0.000000 0.000001 0.000000 1.523716 -3.487270 22.227551 -1.269999 3.978903 13.100024 -0.000003 -0.000002 -0.000001 -0.000001 -0.000000 0.000002 -20.515889 1.051167 8.735388 17.245726 0.255706 -0.526253 6.325582 17.731682 -3.514726 0.276088 3.218926 -1.878271 -0.000000 0.000002 -0.000000 -5.024936 -7.680625 5.552663 6.981558 0.093404 0.328195 -1.219114 -12.171955 -3.810891 -2.982793 0.966283 -0.579135 0.000000 -0.000003 -0.000000 
1.101926 92.133453 -8.161722 -0.554841 -5.846492 -2.830709 1.182512 0.713316 0.828228 2.354470 1.449960 1.596408 2.354469 1.449959 1.596409 -9.751034 1.316987 1.420888 6.780447 -2.630269 -1.885316 -0.000000 0.000000 0.000000 -2.267718 0.183536 -11.011428 17.681891 -21.755717 -63.891802 0.703543 -26.498064 0.313847 -29.246429 -4.546779 9.586882 14.044099 8.340403 8.533429 7.370502 10.037592 -1.025457 -0.000006 -0.000001 -0.000009 -0.000001 0.000002 -0.000000 -6.550236 12.192724 -8.505129 0.455699 0.716226 -16.325728 -0.000001 0.000002 0.000004 -0.000000 -0.000000 -0.000001 -0.836581 6.737241 -10.995301 -0.013758 -0.276434 -10.053472 0.000000 0.000005 0.000003 -0.000001 -0.000001 -0.000000 1.890958 6.438903 -19.462154 -0.106565 0.087105 -10.721088 0.000001 0.000007 -0.000002 0.000000 -0.000001 0.000001 6.610903 6.743305 -28.812070 -0.469786 -2.714833 -15.916847 -0.000002 -0.000005 0.000001 0.000001 0.000001 -0.000004 -1.473790 -0.333955 7.470731 6.407724 -4.704169 74.111835 -28.675289 21.581250 14.595942 38.634436 0.764304 -2.616179 -13.312201 -10.723931 -9.664243 2.389509 -4.261784 -2.276558 0.000005 -0.000011 0.000002 0.000003 -0.000002 0.000002 -8.655363 -6.426085 5.791907 0.249886 -1.385075 24.387715 -0.000000 0.000007 0.000005 0.000001 0.000001 0.000000 -1.889972 -2.994271 18.775528 -0.281882 1.538839 17.641959 -0.000004 0.000001 -0.000001 -0.000000 0.000001 -0.000003 -0.625502 -3.983069 20.396408 -0.360790 0.468957 10.471773 -0.000008 -0.000001 0.000001 0.000001 0.000000 0.000001 1.580014 -3.577793 22.185476 -1.250065 3.881236 13.935390 -0.000004 -0.000003 0.000001 -0.000001 -0.000000 -0.000000 -20.980758 1.449923 8.837390 17.770325 0.238768 -0.551505 6.052074 17.164282 -3.410082 0.274490 3.218950 -1.876634 0.000000 0.000003 -0.000000 -5.644320 -8.086021 5.373532 8.092253 0.091045 0.365882 -1.802257 -11.935328 -3.798585 -3.174800 0.949503 -0.565003 0.000000 0.000001 0.000000 
1.177837 92.022820 -8.011759 -0.301247 -5.508555 -2.819063 1.158382 0.657532 0.822273 2.306897 1.338601 1.578039 2.306897 1.338602 1.578040 -9.464174 1.505956 1.285324 8.683190 -4.471654 -1.513344 0.000000 -0.000000 -0.000000 -2.186618 0.243085 -10.761998 17.674701 -21.139823 -64.126194 0.682443 -26.361709 0.302953 -26.879581 -4.798374 8.650034 12.826282 7.462587 8.891457 7.585239 10.739773 -1.515371 -0.000008 0.000000 -0.000007 -0.000000 0.000001 0.000003 -6.619896 11.964041 -8.744623 0.458956 0.722687 -16.284935 -0.000000 0.000001 0.000002 0.000000 -0.000000 -0.000004 -0.886358 6.493086 -11.372713 -0.011930 -0.258800 -9.722240 0.000000 0.000005 0.000003 -0.000000 0.000000 0.000000 1.844335 6.318522 -19.663792 -0.114730 0.058899 -11.037237 0.000001 0.000008 -0.000002 -0.000001 -0.000001 -0.000001 6.559880 6.547811 -28.987425 -0.441149 -2.620870 -15.380616 -0.000003 -0.000004 0.000004 -0.000000 -0.000000 0.000002 -1.421752 -0.723632 7.467911 6.675575 -5.191552 74.066927 -28.098420 21.918987 14.431611 39.559359 0.897507 -2.025568 -13.892419 -10.109956 -9.996245 2.686615 -4.736775 -1.969452 0.000003 -0.000012 0.000001 0.000001 0.000001 -0.000002 -8.695697 -5.883939 6.046387 0.244350 -1.369832 24.703841 -0.000001 0.000005 -0.000002 0.000000 0.000001 0.000002 -1.941468 -2.878995 19.157999 -0.289268 1.557425 17.887610 -0.000005 0.000001 -0.000001 0.000000 -0.000001 -0.000002 -0.643902 -3.999312 20.491481 -0.361961 0.476177 11.272347 -0.000007 -0.000001 0.000004 -0.000000 -0.000000 0.000002 1.723619 -3.854339 21.924233 -1.226980 3.773554 15.017752 -0.000003 -0.000002 -0.000003 -0.000001 0.000000 -0.000002 -21.789518 2.259933 9.098069 18.661549 0.209335 -0.592988 5.508094 15.935789 -3.197401 0.272116 3.218989 -1.874211 0.000000 -0.000001 0.000000 -6.375049 -8.506917 5.209197 9.368815 0.087439 0.410908 -2.584213 -11.890517 -3.777865 -3.248489 0.919322 -0.545636 -0.000000 -0.000000 0.000000 
1.274323 91.881310 -7.828807 0.090464 -4.935595 -2.819864 1.115974 0.591168 0.828843 2.222713 1.206102 1.583499 2.222715 1.206101 1.583499 -9.220533 1.736599 0.923028 11.133994 -6.029060 -1.343396 -0.000000 0.000000 -0.000000 -2.090961 0.489353 -10.441875 17.603102 -20.508432 -64.458373 0.661103 -26.250623 0.292368 -23.687859 -4.966950 7.520983 11.179486 6.177536 9.414288 7.839994 11.623117 -2.156496 -0.000008 -0.000001 -0.000011 -0.000003 0.000005 -0.000002 -6.705379 11.690550 -9.045865 0.461368 0.723678 -16.169996 -0.000001 0.000001 0.000004 -0.000000 -0.000000 0.000002 -0.988475 6.029644 -11.860664 -0.009635 -0.234026 -9.257333 -0.000000 0.000005 0.000002 -0.000000 0.000000 0.000000 1.772114 6.137276 -19.823236 -0.126575 0.018361 -11.490486 0.000001 0.000006 -0.000003 -0.000001 -0.000000 -0.000004 6.446586 6.212855 -29.116864 -0.403815 -2.496516 -14.672607 -0.000004 -0.000006 -0.000001 -0.000002 -0.000001 -0.000003 -1.375049 -0.962518 7.224446 7.090140 -6.009261 74.224157 -27.499484 22.134346 14.196868 40.387844 1.090002 -1.383817 -14.369763 -9.457621 -10.452780 3.049145 -5.385144 -1.568579 0.000003 -0.000009 0.000006 0.000001 -0.000000 -0.000000 -8.791454 -5.131271 6.107854 0.237851 -1.353136 24.986509 -0.000001 0.000005 0.000002 0.000000 -0.000000 -0.000001 -2.011547 -2.679464 19.418276 -0.296827 1.574814 18.133324 -0.000004 0.000002 -0.000003 -0.000001 -0.000001 -0.000001 -0.641704 -4.073572 20.563027 -0.362125 0.479359 12.174104 -0.000008 -0.000001 0.000000 -0.000000 -0.000000 0.000000 1.952524 -4.325747 21.440900 -1.208901 3.675348 16.506267 -0.000004 -0.000001 0.000003 -0.000001 -0.000001 -0.000000 -22.954650 3.523737 9.515484 19.759216 0.165485 -0.643873 4.856003 13.983511 -2.861884 0.269212 3.219044 -1.871223 -0.000000 0.000001 -0.000000 -7.302148 -8.878764 5.054730 10.816983 0.082197 0.461616 -3.499590 -12.137553 -3.761198 -3.257075 0.878041 -0.521147 0.000000 -0.000001 0.000000 
